<mxfile host="app.diagrams.net" modified="2020-05-10T14:54:12.051Z" agent="5.0 (Windows NT 10.0; Win64; x64) AppleWebKit/537.36 (KHTML, like Gecko) Chrome/81.0.4044.113 Safari/537.36" etag="oCQOnAQUf0SGRPDH1ia2" version="13.0.9" type="github">
  <diagram id="lwKEES42lVlwchJHqvVp" name="第 1 页">
    <mxGraphModel dx="1422" dy="804" grid="1" gridSize="10" guides="1" tooltips="1" connect="1" arrows="1" fold="1" page="1" pageScale="1" pageWidth="827" pageHeight="1169" math="0" shadow="0">
      <root>
        <mxCell id="0" />
        <mxCell id="1" parent="0" />
        <mxCell id="1flQQqXg5rlOB9--kbzv-3" value="" style="edgeStyle=orthogonalEdgeStyle;rounded=0;orthogonalLoop=1;jettySize=auto;html=1;fontSize=19;fillColor=#f5f5f5;strokeColor=#666666;" edge="1" parent="1" source="1flQQqXg5rlOB9--kbzv-1" target="1flQQqXg5rlOB9--kbzv-2">
          <mxGeometry relative="1" as="geometry" />
        </mxCell>
        <mxCell id="1flQQqXg5rlOB9--kbzv-1" value="批处理应用" style="html=1;whiteSpace=wrap;comic=1;strokeWidth=2;fontFamily=Comic Sans MS;fontStyle=1;fontSize=19;fillColor=#f5f5f5;strokeColor=#666666;fontColor=#333333;" vertex="1" parent="1">
          <mxGeometry x="310" y="130" width="120" height="60" as="geometry" />
        </mxCell>
        <mxCell id="1flQQqXg5rlOB9--kbzv-5" value="" style="edgeStyle=orthogonalEdgeStyle;rounded=0;orthogonalLoop=1;jettySize=auto;html=1;fontSize=19;fillColor=#f5f5f5;strokeColor=#666666;" edge="1" parent="1" source="1flQQqXg5rlOB9--kbzv-2" target="1flQQqXg5rlOB9--kbzv-4">
          <mxGeometry relative="1" as="geometry" />
        </mxCell>
        <mxCell id="1flQQqXg5rlOB9--kbzv-2" value="处理的工作量固定" style="html=1;whiteSpace=wrap;comic=1;strokeWidth=2;fontFamily=Comic Sans MS;fontStyle=1;fontSize=19;fillColor=#f5f5f5;strokeColor=#666666;fontColor=#333333;" vertex="1" parent="1">
          <mxGeometry x="285" y="230" width="170" height="40" as="geometry" />
        </mxCell>
        <mxCell id="1flQQqXg5rlOB9--kbzv-4" value="编译器的选择" style="html=1;whiteSpace=wrap;comic=1;strokeWidth=2;fontFamily=Comic Sans MS;fontStyle=1;fontSize=19;fillColor=#f5f5f5;strokeColor=#666666;fontColor=#333333;" vertex="1" parent="1">
          <mxGeometry x="310" y="310" width="120" height="60" as="geometry" />
        </mxCell>
      </root>
    </mxGraphModel>
  </diagram>
</mxfile>
